<?xml version="1.0" encoding="UTF-8"?>
<svg width="1200pt" height="1200pt" version="1.1" viewBox="0 0 1200 1200" xmlns="http://www.w3.org/2000/svg">
 <path d="m600 1200c-140.21 0-279.16-35.367-382.74-96-142.73-83.367-217.26-212.21-217.26-372.63-3.7891-222.32 141.47-327.16 258.95-410.52 117.47-84.633 176.84-133.89 147.79-245.05-5.0547-18.949-1.2656-37.898 10.105-51.793 11.367-15.156 29.051-24 46.734-24 250.11 0 356.21 224.84 390.32 415.58 18.949-34.105 31.578-78.316 29.051-130.11-1.2617-24 11.367-45.473 32.844-56.844 21.473-10.105 46.738-7.5781 64.422 7.5781 149.05 121.27 219.79 286.74 219.79 507.79 0 162.95-78.316 291.79-226.11 371.37-144 75.789-309.47 84.633-373.89 84.633zm-65.684-1069.9c0 141.47-108.63 218.53-205.89 289.26-108.63 78.316-210.95 151.58-208.42 312 0 276.63 301.89 349.89 480 349.89 55.578 0 197.05-6.3164 317.05-70.738 109.89-59.367 162.95-145.26 162.95-265.26 0-135.16-31.578-243.79-94.738-330.95-41.684 123.79-137.68 192-142.74 195.79-18.949 12.633-41.684 13.895-61.895 3.7891-20.211-10.105-31.578-30.316-31.578-53.051 0-1.2617-1.2617-118.74-40.422-232.42-39.156-109.89-95.996-175.57-174.31-198.31z"/>
</svg>
